<?xml version="1.0" encoding="UTF-8"?>
<svg xmlns="http://www.w3.org/2000/svg" xmlns:xlink="http://www.w3.org/1999/xlink" viewBox="0 0 179.35 179.35">
  <defs>
    <style>
      .cls-1 {
        fill: url(#radial-gradient-9);
      }

      .cls-2 {
        fill: url(#radial-gradient-8);
      }

      .cls-3 {
        fill: url(#radial-gradient-7);
      }

      .cls-3, .cls-4, .cls-5, .cls-6, .cls-7, .cls-8, .cls-9 {
        mix-blend-mode: color-dodge;
      }

      .cls-4 {
        fill: url(#radial-gradient-5);
      }

      .cls-5 {
        fill: url(#radial-gradient-6);
      }

      .cls-6 {
        fill: url(#radial-gradient-4);
      }

      .cls-7 {
        fill: url(#radial-gradient-3);
      }

      .cls-8 {
        fill: url(#radial-gradient-2);
      }

      .cls-10 {
        fill: url(#radial-gradient);
      }

      .cls-11 {
        fill: url(#linear-gradient);
      }

      .cls-12 {
        isolation: isolate;
      }

      .cls-13 {
        fill: url(#linear-gradient-2);
        mix-blend-mode: overlay;
      }

      .cls-14 {
        fill: url(#radial-gradient-10);
      }

      .cls-15 {
        fill: #fff;
      }
    </style>
    <linearGradient id="linear-gradient" x1="89.68" y1="174.35" x2="89.68" y2="5" gradientTransform="translate(0 179.35) rotate(-90)" gradientUnits="userSpaceOnUse">
      <stop offset="0" stop-color="#fff"/>
      <stop offset=".37" stop-color="#f0f0f0"/>
      <stop offset="1" stop-color="#fff"/>
    </linearGradient>
    <radialGradient id="radial-gradient" cx="88.17" cy="153.32" fx="88.17" fy="153.32" r="82.1" gradientUnits="userSpaceOnUse">
      <stop offset="0" stop-color="#aadff1"/>
      <stop offset=".4" stop-color="#caa7c7"/>
      <stop offset=".69" stop-color="#3667b1"/>
      <stop offset="1" stop-color="#131d42"/>
    </radialGradient>
    <radialGradient id="radial-gradient-2" cx="91.64" cy="155.46" fx="91.64" fy="155.46" r="125.95" gradientUnits="userSpaceOnUse">
      <stop offset="0" stop-color="#fff"/>
      <stop offset="1" stop-color="#149bc4"/>
    </radialGradient>
    <radialGradient id="radial-gradient-3" cx="90.55" cy="153.09" fx="90.55" fy="153.09" r="122.09" xlink:href="#radial-gradient-2"/>
    <radialGradient id="radial-gradient-4" cx="87.26" cy="143.65" fx="87.26" fy="143.65" r="106.68" xlink:href="#radial-gradient-2"/>
    <radialGradient id="radial-gradient-5" cx="91.64" cy="155.46" fx="91.64" fy="155.46" r="125.95" xlink:href="#radial-gradient-2"/>
    <radialGradient id="radial-gradient-6" cx="91.41" cy="153.5" fx="91.41" fy="153.5" r="121.64" xlink:href="#radial-gradient-2"/>
    <radialGradient id="radial-gradient-7" cx="90.69" cy="145.68" fx="90.69" fy="145.68" r="105.62" xlink:href="#radial-gradient-2"/>
    <radialGradient id="radial-gradient-8" cx="91.64" cy="155.46" fx="91.64" fy="155.46" r="125.95" xlink:href="#radial-gradient-2"/>
    <radialGradient id="radial-gradient-9" cx="92.55" cy="153.81" fx="92.55" fy="153.81" r="120.32" xlink:href="#radial-gradient-2"/>
    <radialGradient id="radial-gradient-10" cx="95.26" cy="147.16" fx="95.26" fy="147.16" r="102.48" xlink:href="#radial-gradient-2"/>
    <linearGradient id="linear-gradient-2" x1="113.68" y1="144.52" x2="66.23" y2="36.11" gradientUnits="userSpaceOnUse">
      <stop offset="0" stop-color="#131d42"/>
      <stop offset="1" stop-color="#fff" stop-opacity=".2"/>
    </linearGradient>
  </defs>
  <g class="cls-12">
    <g id="Layer_1" data-name="Layer 1">
      <rect class="cls-15" width="179.35" height="179.35" rx="47.67" ry="47.67"/>
      <path class="cls-11" d="M47.67,5h84.02c23.55,0,42.67,19.12,42.67,42.67v84.02c0,23.55-19.12,42.67-42.67,42.67H47.67c-23.55,0-42.67-19.12-42.67-42.67V47.67C5,24.12,24.12,5,47.67,5Z" transform="translate(179.35 0) rotate(90)"/>
      <g>
        <path class="cls-10" d="M89.67,154.64c-1.92,0-3.83-.49-5.54-1.48l-46.68-26.95c-3.42-1.97-5.54-5.65-5.54-9.59v-53.9c0-3.94,2.12-7.62,5.54-9.59l46.68-26.95c3.42-1.97,7.66-1.97,11.08,0l46.68,26.95c3.42,1.97,5.54,5.65,5.54,9.59v53.9c0,3.94-2.12,7.62-5.54,9.59l-46.68,26.95c-1.71.99-3.62,1.48-5.54,1.48Z"/>
        <path class="cls-8" d="M59.67,78.55c0-1.76.95-3.38,2.48-4.24l26.94-15.11c.36-.2.58-.58.58-.99v-10.05c0-1.98-2.13-3.23-3.86-2.26l-35.44,19.87c-.82.46-1.33,1.32-1.33,2.26v40.28c0,1.98,2.13,3.23,3.86,2.26l6.18-3.46c.36-.2.58-.58.58-.99v-27.57Z"/>
        <path class="cls-7" d="M51.65,109.91c-.77,0-1.6-.61-1.6-1.6v-40.28c0-.58.31-1.11.82-1.39l35.43-19.87c.25-.14.51-.21.78-.21.77,0,1.6.61,1.6,1.6v10.05s-.03.09-.07.12l-26.94,15.11c-1.85,1.04-2.99,3-2.99,5.11v27.57s-.03.09-.07.12l-6.18,3.46c-.25.14-.51.21-.78.21h0Z"/>
        <path class="cls-6" d="M53.05,68.85l32.63-18.29v5.98l-25.48,14.28c-2.79,1.57-4.53,4.53-4.53,7.73v25.89l-2.62,1.47v-37.06Z"/>
        <path class="cls-4" d="M81.67,88.4c0-1.73.92-3.33,2.42-4.2l22.48-13.06c.35-.2.56-.58.56-.98v-8.7c0-1.98-2.13-3.23-3.86-2.26l-35.44,19.87c-.82.46-1.33,1.32-1.33,2.26v40.28c0,1.98,2.13,3.23,3.86,2.26l10.72-6.01c.36-.2.58-.58.58-.99v-28.47Z"/>
        <path class="cls-5" d="M69.11,123.21c-.77,0-1.6-.61-1.6-1.6v-40.28c0-.58.31-1.11.81-1.39l35.44-19.87c.25-.14.51-.21.78-.21.77,0,1.6.61,1.6,1.6v8.7s-.02.09-.06.11l-22.48,13.06c-1.8,1.04-2.92,2.99-2.92,5.07v28.47s-.03.09-.07.12l-10.72,6.01c-.25.14-.51.21-.78.21h0Z"/>
        <path class="cls-3" d="M70.51,82.15l32.62-18.29v4.65l-21.05,12.23c-2.72,1.58-4.41,4.52-4.41,7.66v26.79l-7.16,4.02v-37.06Z"/>
        <g class="cls-9">
          <path class="cls-2" d="M129.01,113.16l-35.44,20.59c-1.73,1.01-3.9-.24-3.9-2.24v-40.23c0-.92.49-1.78,1.29-2.24l35.44-20.59c1.73-1.01,3.9.24,3.9,2.24v40.23c0,.92-.49,1.78-1.29,2.24Z"/>
          <path class="cls-1" d="M92.27,133.11c-.77,0-1.6-.61-1.6-1.6v-40.23c0-.57.3-1.09.79-1.38l35.44-20.59c.25-.15.52-.22.8-.22.77,0,1.6.61,1.6,1.6v40.23c0,.57-.3,1.09-.79,1.38l-35.43,20.59c-.25.15-.52.22-.8.22Z"/>
          <polygon class="cls-14" points="93.68 92.09 126.3 73.13 126.3 110.11 93.68 129.07 93.68 92.09"/>
        </g>
      </g>
      <path class="cls-13" d="M141.39,54l-46.68-26.95c-1.52-.88-3.27-1.34-5.04-1.34s-3.51.46-5.04,1.34l-46.68,26.95c-3.11,1.79-5.04,5.14-5.04,8.73v53.9c0,3.59,1.93,6.93,5.04,8.73l46.68,26.95c1.52.88,3.27,1.34,5.04,1.34s3.51-.46,5.04-1.34l46.68-26.95c3.11-1.79,5.04-5.14,5.04-8.73v-53.9c0-3.59-1.93-6.93-5.04-8.73ZM143.43,116.62c0,2.52-1.36,4.87-3.54,6.13l-46.68,26.95c-1.07.62-2.29.94-3.54.94s-2.47-.33-3.54-.94l-46.68-26.95c-2.18-1.26-3.54-3.61-3.54-6.13v-53.9c0-2.52,1.36-4.87,3.54-6.13l46.68-26.95c1.07-.62,2.29-.94,3.54-.94s2.47.33,3.54.94l46.68,26.95c2.18,1.26,3.54,3.61,3.54,6.13v53.9Z"/>
    </g>
  </g>
</svg>